<svg xmlns="http://www.w3.org/2000/svg" width="64" height="64" viewBox="0 0 64 64" aria-label="Alarm Clock Favicon">
  <!-- Sinos amarelos -->
  <path d="M14 10c-3 0-6 2.4-7.5 5.4l5.4 3.2c1.1-2.1 3.1-3.6 5.6-3.8L14 10z" fill="#F6C453" stroke="#B7791F" stroke-width="2"/>
  <path d="M50 10c3 0 6 2.4 7.5 5.4l-5.4 3.2c-1.1-2.1-3.1-3.6-5.6-3.8L50 10z" fill="#F6C453" stroke="#B7791F" stroke-width="2"/>

  <!-- Botão superior -->
  <rect x="28" y="6" width="8" height="6" rx="3" fill="#4A5568"/>

  <!-- Corpo azul com borda -->
  <circle cx="32" cy="36" r="22" fill="#4EA3FF" stroke="#2B6CB0" stroke-width="3"/>

  <!-- Mostrador claro -->
  <circle cx="32" cy="36" r="16" fill="#FFFFFF" stroke="#CBD5E0" stroke-width="2"/>

  <!-- Marcas simples -->
  <g stroke="#A0AEC0" stroke-width="2">
    <line x1="32" y1="20" x2="32" y2="23"/>
    <line x1="32" y1="49" x2="32" y2="52"/>
    <line x1="16" y1="36" x2="19" y2="36"/>
    <line x1="45" y1="36" x2="48" y2="36"/>
  </g>

  <!-- Ponteiros e centro -->
  <circle cx="32" cy="36" r="3" fill="#2D3748"/>
  <path d="M32 36 L32 24" stroke="#2D3748" stroke-width="3" stroke-linecap="round"/>
  <path d="M32 36 L40 34" stroke="#2D3748" stroke-width="3" stroke-linecap="round"/>

  <!-- Pernas -->
  <path d="M18 56 L24 48 L26 52 L22 56 Z" fill="#8B5A2B"/>
  <path d="M46 56 L40 48 L38 52 L42 56 Z" fill="#8B5A2B"/>
</svg>